<?xml version="1.0" encoding="UTF-8"?>
<svg id="Layer_2" data-name="Layer 2" xmlns="http://www.w3.org/2000/svg" viewBox="0 0 748.17 1024">
  <defs>
    <style>
      .cls-1 {
        fill: #accae6;
      }

      .cls-2 {
        fill: #fdd18a;
      }

      .cls-3 {
        fill: #5cbdd8;
      }

      .cls-4 {
        fill: #f8c3c9;
      }

      .cls-5 {
        fill: #8985cb;
      }

      .cls-6 {
        fill: #fcccbd;
      }

      .cls-7 {
        fill: #aedc7a;
      }

      .cls-8 {
        fill: #e6eda8;
      }

      .cls-9 {
        fill: #b18bcf;
      }

      .cls-10 {
        fill: #faa2a7;
      }

      .cls-11 {
        fill: #fb9991;
      }

      .cls-12 {
        fill: #fdb7ae;
      }

      .cls-13 {
        fill: #c3eccd;
      }

      .cls-14 {
        fill: #fcb16f;
      }

      .cls-15 {
        fill: #f54349;
      }

      .cls-16 {
        fill: #dec2e7;
      }

      .cls-17 {
        fill: #beebdc;
      }

      .cls-18 {
        fill: #fcbd71;
      }

      .cls-19 {
        fill: #a8d7e8;
      }

      .cls-20 {
        fill: #8e64be;
      }

      .cls-21 {
        fill: #595fba;
      }

      .cls-22 {
        fill: #fdb92b;
      }

      .cls-23 {
        fill: #e5e4d1;
      }

      .cls-24 {
        fill: #cdebae;
      }

      .cls-25 {
        fill: #d2e6c0;
      }

      .cls-26 {
        fill: #5fcdd0;
      }

      .cls-27 {
        fill: #fdc491;
      }

      .cls-28 {
        fill: #f75371;
      }

      .cls-29 {
        fill: #fdec8b;
      }

      .cls-30 {
        fill: #ee97c7;
      }

      .cls-31 {
        fill: #b9aada;
      }

      .cls-32 {
        fill: #fdde4e;
      }

      .cls-33 {
        fill: #a1e1e1;
      }

      .cls-34 {
        fill: #fa7893;
      }

      .cls-35 {
        fill: #82c64c;
      }

      .cls-36 {
        fill: #fdfefe;
      }

      .cls-37 {
        fill: #c3c2e5;
      }
    </style>
  </defs>
  <g id="Layer_1-2" data-name="Layer 1">
    <g id="Generative_Object" data-name="Generative Object">
      <path class="cls-29" d="M266.99,493.91l49.93,51.63v216.73l-47.66,49.36-12.48-11.35c13.7-14.07,27.83-27.82,40.85-42.55v-148.65l-162.27-80c3.08-4.71,3.17-11.36,6.81-15.89l156.02,76.03c1.45-1.13,1.17-34.82.57-36.88-1.25-4.28-40.8-40.44-46.52-47.09,3.45-1.47,13.03-8.6,14.75-11.35Z"/>
      <path class="cls-8" d="M441.73,453.06c-8.98,12.73-18.59,25.03-27.23,38.01v298.43c11.76,13.66,79.47,73.63,81.7,85.1,2.22,11.42-.75,32.6-1.13,44.82-4.73-1.19-12.36-1.94-17.02-1.13-1.79-9.62,2.4-29.77,0-38.01-3.49-11.97-71.84-66.47-80.57-83.97v-312.05c9.75-13.48,19.82-26.76,29.5-40.28l14.75,9.08Z"/>
      <path class="cls-24" d="M492.8,505.26c-5.44,10.02-43.29,41.02-45.39,48.23-.5,1.72-.83,33.63,0,35.18,20.74-8.35,41.14-18.11,61.27-27.8l7.94,14.75c-23.08,11.46-46.28,22.84-69.22,34.61v147.51c13.51,13.17,26.57,26.78,39.72,40.28l-13.62,11.35c-14.16-14.76-28.56-29.3-43.12-43.69v-220.14l48.79-51.63c.97,1.49,11.77,10.5,13.62,11.35Z"/>
      <path class="cls-3" d="M680.02,221.58c-2.6,1.43-9.45,3.38-12.48,3.4-.83,0-4.32.04-4.54,0-7.31-1.37-10.73-5.53-15.89-9.08-1.59-1.1-4.3-6.27-6.81-6.81-.3-4.29-4.51-12.45-4.54-15.89-.01-1.97,3.41-13.78,4.54-15.89.57-1.07,7.63-8.16,9.08-9.08,10.65-6.77,24.18-7.27,34.61,0,20.23,14.11,16.81,41.93-3.97,53.33Z"/>
      <path class="cls-27" d="M117.2,478.02c4.99,1.71,8.39,7.49,13.62,6.81-.25,6.18,5.48,6.36,5.67,6.81,1.85,4.4,1.8,12.84,5.67,15.89l-2.27,2.84,2.27,2.84c-3.64,4.52-3.73,11.17-6.81,15.89-14.14,21.64-51.25,15.51-56.74-7.94,12.42,14.7,36.41,23,48.79,3.97,18.62-28.61-18.86-55.28-43.12-33.47,1.43-4.2,4.18-6.15,2.27-9.65l-51.06-83.4c8.97-1.17,13-8.06,15.89-9.08,6.42,10.15,46.57,84.52,51.06,86.81,2.68,1.36,10.95.4,14.75,1.7Z"/>
      <path class="cls-33" d="M710.66,398.59l-51.06,85.67c-.56,2.47.55,3.37,1.13,5.11-6.27,1.69-9.88-4.71-16.45-5.67-12.56-1.85-29.48,4.21-33.47,17.59-9.9,33.13,39.43,51.9,53.33,17.02.92-2.3.82-11.19,1.7-11.91,5.39-4.44,1.16,13.78,1.7,14.75-8.51,23.61-42.55,28.99-56.74,9.08-1.99-2.79-5.22-13.33-5.67-17.02-.23-1.89-1.14-2.76-1.13-3.4.03-3.52,3.57-13.71,5.67-17.02.48-.76,11.36-10.74,12.48-11.35,5.29-2.88,9.24-2.99,14.75-4.54,1.94,1.41,6.77,1.47,9.08-.57,4.45-3.93,42.71-72.24,47.66-82.27.5-1.02,2.9-2.58,2.27-4.54,5.75,3.68,5.38,7.11,14.75,9.08Z"/>
      <path class="cls-29" d="M380.46,854.75v107.23c18.46,6.38,30.64,27.11,21.56,45.39-3.5,7.05-21.37,22.63-29.5,14.18,28.74-.13,35.61-39.62,10.78-49.93-14.61-6.07-29.29,1.81-36.88,14.75.33-3.59-.88-3.99,1.13-9.08,1.12.14.95-.43,1.13-1.13.26-.54,1.06-2.17,1.13-2.27.05-.07.59-.53,1.13-1.13.27-.3.79-.78,1.13-1.13.37-.38.75-.74,1.13-1.13.06-.06,1.34.15,1.13-1.13,3.21-2.88,6.96-4.6,10.21-7.38v-104.96c-.03-8.49,13.65-11.49,15.89-2.27Z"/>
      <path class="cls-26" d="M660.73,489.37c4.53,13.39,14.17,11.36,6.81,31.77-.54-.97,3.69-19.19-1.7-14.75-.88.72-.79,9.62-1.7,11.91-13.9,34.88-63.23,16.11-53.33-17.02,4-13.38,20.91-19.44,33.47-17.59,6.57.97,10.18,7.37,16.45,5.67Z"/>
      <path class="cls-18" d="M78.62,521.14c-2.77-11.85,2.24-19.43,5.67-29.5,24.26-21.8,61.74,4.86,43.12,33.47-12.38,19.03-36.37,10.73-48.79-3.97Z"/>
      <path class="cls-27" d="M355.49,390.65c-19.02,14.43-36.15,31.28-54.47,46.52-4.53,3.77-9.09,7.59-13.62,11.35-5.86,4.87-13.43,8.44-18.16,14.75-.49-1.3-9.29-13-10.21-13.62,4.78-3.95,9-9.68,13.62-13.62,3.57-3.04,9.22-7.66,13.62-11.35,18.98-15.91,40.18-29.97,56.74-48.79,2.35,5.31,7.52,11.8,12.48,14.75Z"/>
      <path class="cls-13" d="M610.81,530.22c-31.19,15.48-63,29.91-94.18,45.39l-7.94-14.75c32.25-15.52,63.81-32.87,96.45-47.66.45,3.7,3.69,14.23,5.67,17.02Z"/>
      <path class="cls-13" d="M556.34,868.37c-4.74,3.12-9.79,7.89-11.35,12.48-24.27-23.36-48.17-47.18-71.49-71.49l13.62-11.35c10.88,11.18,61.33,65.64,69.22,70.35Z"/>
      <path class="cls-1" d="M716.34,337.32c-1.74.04-10.39,2.49-12.48,3.4l-36.31-115.74c3.03-.03,9.88-1.98,12.48-3.4l36.31,115.74Z"/>
      <path class="cls-16" d="M514.36,63.85c-2.03,3.44-3.24,7.4-3.4,11.35l-108.93-31.77c.54-1.12,3.39-10.61,3.4-11.35l108.93,31.77Z"/>
      <path class="cls-12" d="M78.62,224.98l-35.18,115.74c-3.65-1.71-8.39-3.41-12.48-3.4l36.31-115.74c2.44.96,9.25,3.43,11.35,3.4Z"/>
      <path class="cls-17" d="M555.21,374.76l-1.13,1.13c-21.15,10.56-58.58,19.09-77.16,31.77,2.11-6.72,2.38-13.54,3.4-20.42.05-.37-.05-.76,0-1.13l68.08-29.5c.38,7.4,7.07,12.99,6.81,18.16Z"/>
      <path class="cls-12" d="M344.15,42.29c.14.32-.15.83,0,1.13l-108.93,32.91c-.15-2.79-2.13-8.69-3.4-11.35l110.07-32.91c1.27,2.78,1.27,7.86,2.27,10.21Z"/>
      <path class="cls-2" d="M269.26,811.63c-18.22,18.87-37.22,36.93-55.6,55.6l-10.21-13.62c17.39-18.19,35.8-35.34,53.33-53.33l12.48,11.35Z"/>
      <path class="cls-19" d="M649.39,168.24c-1.45.92-8.5,8.01-9.08,9.08l-81.7-71.49c4.12-2.06,9.34-7.29,11.35-11.35l79.43,73.76Z"/>
      <path class="cls-6" d="M186.42,104.7l-80.57,73.76c-.52-.95-8.4-9.76-9.08-10.21l80.57-72.62c.41.65,8.53,8.75,9.08,9.08Z"/>
      <path class="cls-25" d="M476.91,407.67c-7.63,5.21-28.33,35.67-35.18,45.39l-14.75-9.08c9.23-12.89,18.54-26.16,28.37-38.58,2.6-3.28,7.86-13.12,8.51-13.62,3.08-2.36,12.67-1.69,16.45-4.54-1.02,6.88-1.3,13.7-3.4,20.42Z"/>
      <g>
        <path class="cls-27" d="M146.71,912.62c-2.21-3.76-2.1-4.84-2.27-9.08-1.56-38.89,48.91-36.66,52.2-7.38,2.61,23.3-21.46,37.5-40.28,26.67-.61-.35-9.29-9.61-9.65-10.21Z"/>
        <path class="cls-27" d="M187.56,869.5c.81.34,11.78,11.36,12.48,12.48,8.54,13.7,5.07,36.03-9.65,44.25-13.19,7.37-41.62,4.3-43.69-13.62.36.61,9.04,9.86,9.65,10.21,18.83,10.83,42.9-3.36,40.28-26.67-3.29-29.28-53.76-31.51-52.2,7.38-7.44-7.67,3.08-23.58,9.65-28.37,7.61-5.55,24.98-9.27,33.47-5.67Z"/>
      </g>
      <g>
        <path class="cls-15" d="M47.98,198.88c-1.56-13.3,4.55-27.04,17.02-32.91l19.86,2.27c44.48,30.14-12.1,76.09-36.88,30.64Z"/>
        <path class="cls-28" d="M96.78,168.24c.68.46,8.56,9.27,9.08,10.21,1.99,3.62,3.17,9.46,3.4,13.62.31,5.53-.7,12.09-3.4,17.02-.08.14-1.33,1-2.27,2.27-3.42,4.61-8.26,8.09-13.62,10.21-1.52.6-10.62,3.4-11.35,3.4-2.1.02-8.91-2.45-11.35-3.4-9.83-3.86-18.02-11.9-19.29-22.69,24.78,45.45,81.36-.49,36.88-30.64l-19.86-2.27c10.47-4.92,21.93-4.31,31.77,2.27Z"/>
      </g>
      <g>
        <path class="cls-22" d="M10.54,390.65c-11.6-10.67-13.24-21.93-6.81-36.31,55.6-43.4,71.75,59.45,6.81,36.31Z"/>
        <path class="cls-18" d="M43.45,340.72c2.21,1.04,6.13,3.94,7.94,5.67.64.61,5.42,6.35,5.67,6.81.27.48,2.18,4.3,2.27,4.54,2.47,6.48,1.69,11.83,3.4,18.16-2.47.38-9.32,10.67-10.21,13.62-.35.09-.8-.12-1.13,0-2.89,1.01-6.91,7.91-15.89,9.08-11.48,1.5-16.77-.4-24.96-7.94,64.95,23.14,48.79-79.71-6.81-36.31,4.68-10.46,15.95-17.02,27.23-17.02,4.09,0,8.83,1.69,12.48,3.4Z"/>
      </g>
      <g>
        <path class="cls-15" d="M211.38,47.96c-1.34,6.32,8.78,8.06,12.48,15.32,13.98,27.37-18.64,51.53-40.28,32.34-3.86-3.43-5.59-11.34-10.78-13.62-2.05-22.31,16.91-39.02,38.58-34.04Z"/>
        <path class="cls-28" d="M231.81,64.98c1.28,2.65,3.25,8.56,3.4,11.35.18,3.37-.28,6.98-1.13,10.21-1.26,4.78-4.56,8.98-7.94,12.48-1.37,1.42-6.55,6.13-7.94,6.81-3.68,1.8-12.98,3.69-17.02,3.4-2.36-.17-12.66-3.28-14.75-4.54-.55-.33-8.67-8.43-9.08-9.08-1.61-2.57-4.25-10.42-4.54-13.62,5.19,2.28,6.92,10.19,10.78,13.62,21.64,19.19,54.26-4.97,40.28-32.34-3.71-7.26-13.82-9-12.48-15.32,7.56,1.74,17.01,9.91,20.42,17.02Z"/>
      </g>
      <g>
        <path class="cls-35" d="M481.45,978.44c-16.2-2.31-26.77-18.27-24.96-34.04l19.86-19.29c34.49-10.79,50.42,44.46,9.08,49.93-2.99.4-4.51-1.23-3.97,3.4Z"/>
        <path class="cls-7" d="M495.06,919.43c35.28,8.85,24.76,64.49-13.62,59.01-.54-4.64.98-3.01,3.97-3.4,41.34-5.47,25.41-60.72-9.08-49.93l-19.86,19.29c.5-4.37,1.12-8.66,3.4-12.48.33-.55,8.55-8.72,9.08-9.08,1.15-.79,1.07-1.09,1.13-1.13,1.14-.67,7.06-3.25,7.94-3.4,4.66-.81,12.29-.05,17.02,1.13Z"/>
      </g>
      <g>
        <path class="cls-33" d="M590.38,874.04c7.47,4.88,15.69,16,12.48,24.96-.99-.12-1.03.28-1.13,1.13-.22,1.83.11,3.82,0,5.67-11.88,35.44-62.47,23.88-54.47-13.05,3.45-15.9,29.82-24.71,42.55-14.18l.57-4.54Z"/>
        <path class="cls-33" d="M556.34,868.37c8.33,4.98,19.17-4.03,34.04,5.67l-.57,4.54c-12.73-10.53-39.1-1.72-42.55,14.18-8.01,36.93,42.59,48.49,54.47,13.05-1.66,27.65-40.62,32.81-54.47,10.78-6.66-10.6-5.81-25.3-2.27-35.74,1.56-4.59,6.6-9.36,11.35-12.48Z"/>
      </g>
      <g>
        <path class="cls-21" d="M547.26,47.96c1.38,3.63,8.07,4.3,10.78,6.81,34.33,31.74-23.92,73.46-43.12,28.37l-1.7,5.67c-.58-1.61-1.1-2.15-1.13-2.27-.97-3.65-1.29-7.55-1.13-11.35.17-3.95,1.37-7.91,3.4-11.35,6.49-11,20.25-17.55,32.91-15.89Z"/>
        <path class="cls-5" d="M569.96,94.49c-2.01,4.06-7.23,9.29-11.35,11.35-3.1,1.55-12.78,4.48-15.89,4.54-4.86.1-11.42-2.25-15.89-4.54-2.61-1.34-6.02-4.47-7.94-6.81-1.47-1.78-4.87-7.96-5.67-10.21l1.7-5.67c19.2,45.1,77.45,3.37,43.12-28.37-2.71-2.51-9.4-3.18-10.78-6.81,21.41,2.81,31.73,28.29,22.69,46.52Z"/>
      </g>
      <g>
        <path class="cls-20" d="M396.34,10.52c-1.29,7.45,2.49,14.46,1.13,22.13-3.03,17.12-25.39,25.98-40.28,16.45-5.07-3.24-8.86-14.93-13.05-6.81-1-2.35-1-7.43-2.27-10.21,4.52-2.03,3.41-15,9.08-22.13,11.39-14.31,33.92-12.35,45.39.57Z"/>
        <path class="cls-9" d="M405.42,32.08c-.01.73-2.86,10.23-3.4,11.35-1.03,2.14-3.91,5.05-5.67,6.81-3.45,3.44-10.11,7.96-14.75,9.08-5.56,1.34-13.86,1.51-19.29,0-4.33-1.21-8.24-4.82-11.35-7.94-.93-.94-6.58-7.47-6.81-7.94-.15-.31.14-.81,0-1.13,4.19-8.12,7.98,3.56,13.05,6.81,14.89,9.53,37.25.67,40.28-16.45,1.36-7.66-2.43-14.68-1.13-22.13,5.09,5.74,9.22,13.37,9.08,21.56Z"/>
      </g>
      <path class="cls-29" d="M213.65,867.23c-4.65,4.73-8.96,10.01-13.62,14.75-.7-1.13-11.67-12.14-12.48-12.48,5.78-4.75,10.74-10.5,15.89-15.89l10.21,13.62Z"/>
      <g>
        <path class="cls-32" d="M372.51,1021.56c-21.16.1-27.75-17-26.1-35.18,7.59-12.94,22.27-20.82,36.88-14.75,24.83,10.31,17.96,49.8-10.78,49.93Z"/>
        <path class="cls-36" d="M347.55,977.3c.61-1.55,1.1-1.06,1.13-1.13-.19.71-.02,1.28-1.13,1.13Z"/>
        <path class="cls-36" d="M555.21,375.9h-1.13l1.13-1.13c-.02.37.07.79,0,1.13Z"/>
        <path class="cls-36" d="M348.69,976.17c.55-2.08.48-1.28,1.13-2.27-.07.1-.87,1.73-1.13,2.27Z"/>
        <path class="cls-36" d="M601.73,900.14c.1-.85.15-1.26,1.13-1.13-.21.58.06,1.29-1.13,1.13Z"/>
        <path class="cls-36" d="M349.82,973.9c.75-1.13,1.08-1.07,1.13-1.13-.54.61-1.09,1.07-1.13,1.13Z"/>
        <path class="cls-36" d="M350.96,972.76c.45-.54.73-.73,1.13-1.13-.35.35-.86.83-1.13,1.13Z"/>
        <path class="cls-36" d="M352.09,971.63c.4-.4.64-.7,1.13-1.13-.39.4-.76.76-1.13,1.13Z"/>
        <path class="cls-36" d="M353.22,970.49c.16-.14.58-.63,1.13-1.13.21,1.28-1.08,1.08-1.13,1.13Z"/>
      </g>
      <path class="cls-32" d="M345.28,802.55l-1.13-324.53c.92,1.14,5.33,4.78,5.67,6.24v313.18c-.56,2.5-3.85,4.1-4.54,5.11Z"/>
      <g>
        <path class="cls-29" d="M381.59,394.05v435.17c2.25,10.42,57.39,54.82,65.81,69.79.75,1.33,1.03,1.03,1.13,1.13.07.08-.16,1.34,1.13,1.13,1.21,1.16,2.24,2.24,3.4,3.4-.21,1.29,1.06,1.06,1.13,1.13.35.34.76.76,1.13,1.13s.76.76,1.13,1.13.76.76,1.13,1.13.8.79,1.13,1.13c.39.41.77.76,1.13,1.13s.8.78,1.13,1.13c.39.4.8.78,1.13,1.13.92.97,1.85,1.82,2.27,2.27.39.43.82.79,1.13,1.13.4.44.8.78,1.13,1.13.4.43,1.09,1.07,1.13,1.13.17.27.15,2.39,1.13,3.4-.53.36-8.75,8.53-9.08,9.08l-79.43-77.16c-2.24-9.22-15.92-6.22-15.89,2.27-8.54,9.25-76.53,70.1-77.16,75.46-.08.71,4.4,9.32,4.54,13.62.38,11.84-4.96,21.64-15.32,27.8-28.99,17.24-59.67-14.15-42.55-42.55,4.24-7.04,17.62-12.59,18.16-13.62,2.75-5.28-2.9-39.04,1.13-48.79,5.58-13.47,75.27-66.79,78.3-77.16v-300.7l-44.25-42.55c4.52-3.76,9.09-7.58,13.62-11.35,11.61,14.98,31.5,26.51,43.12,40.85l1.13,324.53c-9.62,14.08-73.76,67.69-76.03,75.46-.56,1.91-1.03,38.02,0,39.72.14.23,4.84,1.74,5.11,1.7,6.25-.79,77.34-79.79,90.21-87.94l1.13-436.3c4.17.66,11.7-.01,15.89-1.13Z"/>
        <path class="cls-32" d="M252.8,923.97c39.68-6.05,41.5,49.08,9.08,52.2-34.02,3.28-41.02-47.32-9.08-52.2Z"/>
        <path class="cls-23" d="M470.1,921.7c-.07.04.02.35-1.13,1.13-.99-1.01-.96-3.14-1.13-3.4.43.41,2.43.88,2.27,2.27Z"/>
        <path class="cls-23" d="M456.48,908.08c-.38-.38-.77-.77-1.13-1.13.37.37.76.76,1.13,1.13Z"/>
        <path class="cls-23" d="M455.35,906.95c-.38-.37-.78-.8-1.13-1.13.37.37.76.76,1.13,1.13Z"/>
        <path class="cls-23" d="M454.21,905.81c-.08-.07-1.34.16-1.13-1.13.37.37.76.76,1.13,1.13Z"/>
        <path class="cls-23" d="M449.68,901.27c-1.29.21-1.06-1.06-1.13-1.13.32.34.8.81,1.13,1.13Z"/>
        <path class="cls-23" d="M461.02,912.62c-.34-.35-.76-.75-1.13-1.13.37.37.76.76,1.13,1.13Z"/>
        <path class="cls-23" d="M457.62,909.22c-.38-.38-.76-.76-1.13-1.13.38.38.76.76,1.13,1.13Z"/>
        <path class="cls-23" d="M448.54,900.14c-.1-.11-.39.2-1.13-1.13,1.29-.21,1.06,1.06,1.13,1.13Z"/>
        <path class="cls-23" d="M458.75,910.35c-.33-.35-.77-.77-1.13-1.13.37.38.76.76,1.13,1.13Z"/>
        <path class="cls-23" d="M459.89,911.49c-.37-.37-.74-.72-1.13-1.13.38.38.76.76,1.13,1.13Z"/>
        <path class="cls-23" d="M467.83,919.43c-.04-.07-.73-.7-1.13-1.13.36.36.78.79,1.13,1.13Z"/>
        <path class="cls-23" d="M466.7,918.3c-.33-.35-.73-.7-1.13-1.13.38.38.76.75,1.13,1.13Z"/>
        <path class="cls-23" d="M465.56,917.16c-.31-.34-.74-.71-1.13-1.13.38.38.76.76,1.13,1.13Z"/>
        <path class="cls-23" d="M464.43,916.03c-.42-.45-1.35-1.3-2.27-2.27.75.75,1.52,1.52,2.27,2.27Z"/>
        <path class="cls-23" d="M462.16,913.76c-.34-.35-.75-.73-1.13-1.13.38.38.76.76,1.13,1.13Z"/>
      </g>
      <path class="cls-1" d="M605.13,290.79c4.92,2.97,9.8,6.1,14.75,9.08,25.54,15.36,50.46,31.98,77.16,45.39-3.25,2.88-7.92,9.54-9.08,13.62-23.08-17.93-50.79-31.24-76.03-46.52-4.91-2.98-9.84-6.09-14.75-9.08-24.63-14.97-48.36-31.63-73.76-45.39,3.87-3.27,6.31-6.56,7.94-11.35,24.13,15.47,49.22,29.46,73.76,44.25Z"/>
      <path class="cls-17" d="M693.64,389.51c.05.36,0,.77,0,1.13-23.1,8.43-49.63,29.88-72.62,36.31-1.88.53-3.88.49-5.67,1.7-4.49-4.73-3.59-13.41-4.54-16.45l76.03-38.58c.82,5.74,6.11,10.63,6.81,15.89Z"/>
      <path class="cls-17" d="M597.19,420.15c2.18,5.3,4.7,10.52,6.81,15.89l-1.13,1.13-63.54,30.64c-3.33-4.45-5.45-9.91-10.21-13.05-1.38-5.35,3.2-3.67,3.4-3.97v1.13c.55,2.4,1.08.02,1.13,0,21.73-9.1,41.8-22.61,63.54-31.77Z"/>
      <path class="cls-17" d="M541.59,473.48l68.08,19.29c-2.1,3.31-5.64,13.5-5.67,17.02l-69.22-18.16c2.96-6.01,1.06-14.44,6.81-18.16Z"/>
      <path class="cls-37" d="M640.31,209.09l-106.66,24.96c.03-4.34-1.32-12.24-3.4-15.89l105.53-24.96c.03,3.43,4.24,11.6,4.54,15.89Z"/>
      <path class="cls-33" d="M663,224.98l-43.12,74.89c-4.95-2.98-9.83-6.11-14.75-9.08l41.98-74.89c5.16,3.55,8.58,7.71,15.89,9.08Z"/>
      <path class="cls-6" d="M181.88,381.57l-20.42,41.42c-1.16,2.36,1.2,2.7,1.13,2.84-2.71,5.46-5.34,10.55-7.94,15.89-.08.17-2.38-.39-3.4,1.7-2.72,5.53-20.33,39.11-20.42,41.42-5.22.68-8.63-5.1-13.62-6.81,10.78-13.11,16.31-30.22,23.83-45.39,2.39-4.83,4.43-9.96,6.81-14.75,6.97-14.05,15.41-28.04,22.69-41.98.51.42,10.7,5.54,11.35,5.67Z"/>
      <path class="cls-29" d="M210.25,490.51l-68.08,17.02c-3.88-3.04-3.83-11.48-5.67-15.89l71.49-20.42c-.62,5.63.11,13.99,2.27,19.29Z"/>
      <g>
        <path class="cls-26" d="M734.49,342.99c26.38,17.95,12.11,59.55-21.56,55.6,4.28-5.5-5.93-5.77-8.51-7.94-19.16-16.1-11.38-46.21,12.48-48.79,7.13-.77,12.4,3.97,17.59,1.13Z"/>
        <path class="cls-26" d="M734.49,342.99c-5.19,2.83-10.46-1.91-17.59-1.13-23.87,2.59-31.64,32.69-12.48,48.79,2.58,2.17,12.79,2.44,8.51,7.94-.72-.08-1.59.14-2.27,0-9.37-1.96-9-5.4-14.75-9.08-.28-.18-1.56.1-2.27,0-.7-5.25-5.99-10.15-6.81-15.89-.57-3.99.02-10.81,1.13-14.75s5.83-10.74,9.08-13.62c.75-.66,5.97-4.18,6.81-4.54,2.09-.91,10.75-3.37,12.48-3.4,6.57-.14,12.79,2.03,18.16,5.67Z"/>
        <path class="cls-36" d="M695.91,389.51c.63,1.96-1.77,3.52-2.27,4.54v-3.4c0-.37.05-.77,0-1.13.71.1,1.99-.18,2.27,0Z"/>
      </g>
      <path class="cls-16" d="M512.09,86.54c.03.12.56.66,1.13,2.27.81,2.25,4.21,8.43,5.67,10.21l-66.95,40.85c-3.05-4.89-6.02-9.86-9.08-14.75l69.22-38.58Z"/>
      <path class="cls-2" d="M286.28,424.69c-4.39,3.68-10.05,8.31-13.62,11.35l-63.54-60.14c4.99-3.25,5.76-6.74,9.08-10.21,1.82-1.9.99-3.29,1.13-3.4l66.95,62.41Z"/>
      <path class="cls-16" d="M503.01,265.83c-5.99,40.39-16.7,79.88-22.69,120.28-.05.37.05.76,0,1.13-3.78,2.85-13.37,2.18-16.45,4.54-.65.5-5.91,10.34-8.51,13.62l-55.6-23.83c4.11-5.25,4.95-6.82,5.67-13.62l56.74,20.99,26.1-125.39c5.75,2.16,8.48,2.66,14.75,2.27Z"/>
      <g>
        <path class="cls-18" d="M259.04,449.66c.92.62,9.72,12.31,10.21,13.62,3.54,9.34,3.05,22.14-2.27,30.64-1.72,2.75-11.3,9.88-14.75,11.35-14.46,6.13-35.7.67-41.98-14.75-2.16-5.3-2.89-13.66-2.27-19.29.04-.37-.05-.77,0-1.13.16-1.09,6.15-16.39,6.81-17.02,1.73-1.66,20.21-9.01,23.26-9.08,3.23-.08,18.2,3.78,20.99,5.67Z"/>
        <path class="cls-22" d="M232.38,449.66c42.75-7.29,42.77,59.48,0,52.2-27.25-4.64-26.32-47.71,0-52.2Z"/>
      </g>
      <path class="cls-29" d="M214.79,453.06c-.66.64-6.65,15.93-6.81,17.02l-53.33-28.37c2.6-5.33,5.24-10.42,7.94-15.89l52.2,27.23Z"/>
      <path class="cls-11" d="M215.92,218.17c-4.18,6.83-4.3,7.87-4.54,15.89l-105.53-24.96c2.7-4.93,3.71-11.49,3.4-17.02l106.66,26.1Z"/>
      <path class="cls-29" d="M147.84,417.88c-2.38,4.79-4.41,9.92-6.81,14.75l-88.51-43.12c.89-2.95,7.74-13.24,10.21-13.62,5.51-.85,73.68,38.44,85.1,41.98Z"/>
      <path class="cls-12" d="M148.97,303.28l-89.64,54.47c-.09-.24-2-4.06-2.27-4.54.35-9.75,13.93-10.07,19.86-13.62,11.99-7.17,23.79-18.06,35.18-24.96.24-.15,3.03,1.58,5.67,0,3.85-2.3,9.05-5.82,12.48-7.94,2.77-1.71,4.27-6.64,8.51-7.94,1.19-.36,1.53-1.43,2.84-1.13,2.11,2.13,5.35,3.65,7.38,5.67Z"/>
      <path class="cls-12" d="M137.63,294.2c-.51,2.69-1.65,5.34,1.13,4.54-4.24,1.3-5.74,6.23-8.51,7.94-3.43,2.12-8.64,5.64-12.48,7.94-2.64,1.58-5.43-.15-5.67,0-11.39,6.9-23.18,17.8-35.18,24.96-5.93,3.55-19.51,3.87-19.86,13.62-.26-.45-5.03-6.19-5.67-6.81l86.24-52.2Z"/>
      <path class="cls-30" d="M302.16,126.26c4.68,2.78,8.91,6.29,13.62,9.08,11.64,6.9,23.66,13.29,35.18,20.42-1.06.9-8.45,11.96-9.08,13.62-8.2-9.53-22.06-15.09-32.91-21.56-4.95-2.95-9.83-6.12-14.75-9.08-22.5-13.51-44.56-27.97-68.08-39.72,3.38-3.51,6.68-7.7,7.94-12.48,22.32,13.83,45.52,26.32,68.08,39.72Z"/>
      <path class="cls-11" d="M244.29,202.29c-1.65-.06-14.02,2.54-15.89,3.4l-27.23-96.45c4.04.29,13.34-1.61,17.02-3.4l26.1,96.45Z"/>
      <path class="cls-37" d="M542.72,110.37l-24.96,96.45c-3.6-2.05-11.65-4.32-15.89-4.54l24.96-96.45c4.47,2.29,11.02,4.64,15.89,4.54Z"/>
      <path class="cls-31" d="M442.87,125.12c3.06,4.89,6.03,9.87,9.08,14.75,13.1,21,26.52,41.91,38.58,63.54-3.19.93-10.01,5.57-12.48,7.94-12.02-22.52-27.39-43.1-40.85-64.68-2.74-4.4-5.15-9.15-7.94-13.62-15.41-24.67-29.47-51.45-47.66-73.76,4.64-1.12,11.3-5.64,14.75-9.08,14.28,25.7,30.94,50,46.52,74.89Z"/>
      <path class="cls-4" d="M362.3,59.31l-46.52,76.03c-4.71-2.79-8.94-6.3-13.62-9.08l48.79-74.89c3.1,3.13,7.02,6.74,11.35,7.94Z"/>
      <g>
        <path class="cls-34" d="M380.46,330.51c1.63.36,7.59,2.61,9.08,3.4,4.88,2.61,10.07,7.48,12.48,12.48,3.53,7.33,4.29,13.27,3.4,21.56-.73,6.8-1.56,8.36-5.67,13.62-3.15,4.03-13.25,11.17-18.16,12.48-4.18,1.12-11.71,1.79-15.89,1.13-1.01-.16-8.79-3.69-10.21-4.54-4.96-2.95-10.13-9.44-12.48-14.75-1.13-2.55-1.69-4-2.27-6.81-1.52-7.4-.62-8.05,0-14.75.19-2.06.97-2.36,1.13-3.4,5.09-4.65,9.61-14.71,15.89-18.16.38-.21,7.52-3.32,7.94-3.4,4.52-.93,10.27.14,14.75,1.13Z"/>
        <path class="cls-28" d="M366.27,335.05c40.22-6.82,42.72,50.69,7.94,53.33-35.4,2.69-37.33-48.35-7.94-53.33Z"/>
      </g>
      <path class="cls-12" d="M357.76,332.78c-6.27,3.44-10.8,13.51-15.89,18.16.35-2.28,2.46-5.23,2.27-6.24-1.11-5.77-74.53-72.17-83.97-82.27,4.43-2.57,10.67-9.86,12.48-14.75l85.1,85.1Z"/>
      <path class="cls-12" d="M484.85,262.43l-82.83,83.97c-2.41-5-7.61-9.87-12.48-12.48l82.83-85.1c1.42,3.01,9.61,12.03,12.48,13.62Z"/>
      <path class="cls-4" d="M381.59,211.36l-1.13,119.15c-4.49-.99-10.24-2.06-14.75-1.13l-1.13-118.01c3.78.9,13.2.95,17.02,0Z"/>
      <path class="cls-10" d="M340.74,354.34c-.62,6.7-1.52,7.35,0,14.75-16,1.77-114.52-12.12-121.42-6.81-.15.11.69,1.5-1.13,3.4.4-6.45,5.76-13.71,4.54-21.56l118.01,10.21Z"/>
      <path class="cls-21" d="M501.87,202.29c4.24.22,12.29,2.49,15.89,4.54,1.24.7,12.06,10.62,12.48,11.35,2.09,3.65,3.43,11.55,3.4,15.89-.02,3.44-1.16,9.23-2.27,12.48-1.63,4.78-4.07,8.08-7.94,11.35-5.95,5.02-12.61,7.46-20.42,7.94-6.27.39-9-.11-14.75-2.27-1.2-.45-3.25-1.05-3.4-1.13-2.87-1.58-11.07-10.6-12.48-13.62-3.08-6.56-4.44-14.29-3.4-21.56.33-2.31,4.43-12.07,5.67-13.62.13-.16,1.48-.42,3.4-2.27,2.47-2.37,9.3-7.01,12.48-7.94,2.62-.77,8.53-1.28,11.35-1.13Z"/>
      <g>
        <path class="cls-33" d="M611.94,312.35c-14.45,20.35-5.2,14.04,0,28.94,3.49,10,2.69,19.13-2.27,28.37-1.56,2.91-10.1,10.59-10.21,11.35-.25,1.64,9.85,26.39,11.35,31.2.95,3.04.05,11.72,4.54,16.45,1.79-1.21,3.8-1.18,5.67-1.7-.41,1.84-3.09.63-2.84,3.4.27,3.01,16.69,45.05,18.72,46.52-5.51,1.55-9.46,1.66-14.75,4.54-5.23-15.04-12.35-29.47-18.16-44.25-.13-.33.13-.81,0-1.13-2.11-5.37-4.63-10.58-6.81-15.89-4.57-11.13-8.05-40.95-25.53-35.18-3.64,1.2-33.76,57.66-39.15,65.81-.2.3-4.78-1.38-3.4,3.97,4.76,3.14,6.88,8.6,10.21,13.05.18.24-1.54,3.53,2.27,5.67-5.74,3.72-3.85,12.15-6.81,18.16-7.64,15.5-27.13,20.45-41.98,13.62-1.85-.85-12.64-9.86-13.62-11.35-10.72-16.38-1.61-43.46,17.59-48.79,5.04-1.4,17.87-.19,18.72-.57,3.63-1.6,38.87-64.73,39.72-68.65.07-.35-.02-.77,0-1.13.26-5.17-6.42-10.76-6.81-18.16-.6-11.47,9.54-30.3,20.99-34.04,15.5-5.06,20.1,4,27.8-19.29,4.92,2.99,9.84,6.1,14.75,9.08Z"/>
        <path class="cls-33" d="M499.04,450.79c38-7.14,44.38,42.92,13.62,51.06-35.2,9.32-45.33-45.11-13.62-51.06Z"/>
        <path class="cls-33" d="M573.93,328.24c44.24-7.71,43.01,56.11,2.27,51.06-28.9-3.58-28.47-46.5-2.27-51.06Z"/>
        <path class="cls-36" d="M604,437.17h-1.13l1.13-1.13c.13.33-.13.81,0,1.13Z"/>
        <path class="cls-36" d="M532.51,451.92h1.13c-.05.02-.58,2.4-1.13,0Z"/>
      </g>
      <path class="cls-12" d="M220.46,259.02l-55.03,32.91c-2.96,2.19-1.17,2.53-.57,4.54-4.84,1.75-3.44-6.62-2.27-9.08s35.32-25.13,40.28-28.37c1.06-.69,2.17,1.21,2.27,1.13,3.17-2.21,11.48-7.44,6.24-11.35.23-.15,1.33.17,1.13-1.13.21.66,7.33,10.77,7.94,11.35Z"/>
      <path class="cls-12" d="M162.59,287.39c.4-6.93-9.61-.35-9.08-5.67,3.18,1.23,3.59.23,6.24-1.13,15.66-8.06,36.68-21.83,51.63-31.77,5.24,3.9-3.07,9.13-6.24,11.35-.1.07-1.21-1.82-2.27-1.13-4.97,3.24-39.11,25.92-40.28,28.37Z"/>
      <g>
        <path class="cls-27" d="M153.51,281.72c-.54,5.32,9.48-1.25,9.08,5.67-1.17,2.46-2.57,10.82,2.27,9.08.44,1.48,13.65,20.33,14.75,20.99,1.92,1.16,3.84.15,5.67.57,10.11,2.33,17.01.41,26.1,7.94,2.9,2.4,10.81,14.72,11.35,18.16,1.22,7.84-4.14,15.11-4.54,21.56-3.32,3.47-4.08,6.97-9.08,10.21-7.59,4.94-18.26,7.48-27.23,5.67-.65-.13-10.84-5.25-11.35-5.67-9.11-7.47-13.27-23.41-11.35-34.61.49-2.84,6.83-12.86,6.81-13.62-.04-1.49-15.51-22.88-17.02-24.4-2.02-2.03-5.27-3.54-7.38-5.67-1.3-.29-1.65.77-2.84,1.13-2.79.8-1.65-1.85-1.13-4.54.38-2.01,3.12-1.76,1.13-5.11l-48.79-67.52c5.35-2.12,10.19-5.61,13.62-10.21l49.93,70.35Z"/>
        <path class="cls-14" d="M184.72,322.57c37.8-3.84,41.36,50.4,6.81,52.2-35.64,1.86-38.19-49.01-6.81-52.2Z"/>
      </g>
      <path class="cls-12" d="M239.75,266.96l-28.37,59.01c-9.09-7.53-15.99-5.61-26.1-7.94,4.37-1.06,9.74.06,13.62-2.84,5.38-4.02,20.76-43.99,27.23-51.63,2.78,1.47,10.28,3.22,13.62,3.4Z"/>
      <path class="cls-4" d="M308.97,147.82l-43.12,64.68c-2.31-2.37-9.39-6.95-12.48-7.94l40.85-65.81c4.92,2.95,9.8,6.12,14.75,9.08Z"/>
      <path class="cls-30" d="M395.21,154.63c3.94,2.95,7.53,8.91,9.08,13.62,1.72,5.23,1.95,10.41,1.13,15.89-.78,5.3-2.56,9.3-5.67,13.62-3.16,4.38-13.26,12.39-18.16,13.62-3.82.95-13.24.9-17.02,0-17.21-4.09-29.01-25.36-22.69-41.98.63-1.66,8.02-12.72,9.08-13.62,11.63-9.92,32.15-10.2,44.25-1.13Z"/>
      <path class="cls-16" d="M437.19,146.68c-10.15,7.37-25.45,12.21-32.91,21.56-1.55-4.71-5.14-10.66-9.08-13.62l34.04-21.56c2.79,4.47,5.2,9.21,7.94,13.62Z"/>
      <path class="cls-31" d="M474.64,213.63c-1.24,1.55-5.35,11.3-5.67,13.62l-69.22-29.5c3.11-4.31,4.89-8.31,5.67-13.62l69.22,29.5Z"/>
      <g>
        <path class="cls-28" d="M253.37,204.56c3.09.99,10.17,5.58,12.48,7.94,9.29,9.5,11.38,22.84,6.81,35.18-1.81,4.89-8.05,12.18-12.48,14.75-6.84,3.97-12.59,4.97-20.42,4.54-3.34-.18-10.84-1.93-13.62-3.4-.32-.17-5.27-4.15-5.67-4.54-.61-.58-7.73-10.69-7.94-11.35-1.07-3.27-1.24-10.03-1.13-13.62.24-8.02.36-9.05,4.54-15.89,1.47-2.41,10.23-11.44,12.48-12.48,1.87-.86,14.23-3.47,15.89-3.4.47.02,7.91,1.89,9.08,2.27Z"/>
        <path class="cls-15" d="M234.65,207.96c45.93-8.27,43.06,63.09-1.13,52.2-26.89-6.63-22.79-47.89,1.13-52.2Z"/>
      </g>
    </g>
  </g>
</svg>